<svg version="1.1" xmlns="http://www.w3.org/2000/svg" style="display: block;" viewBox="0 0 2048 2048" width="1000" height="1000" preserveAspectRatio="none">
<path transform="translate(0,0)" fill="rgb(0,0,0)" d="M 0 0 L 2048 0 L 2048 2048 L 0 2048 L 0 0 z"/>
<path transform="translate(0,0)" fill="rgb(14,192,163)" d="M 1024.2 465.132 C 1053.05 484.028 1079.79 501.449 1110.51 517.514 C 1136.83 531.277 1162.4 542.124 1189.66 553.684 C 1166.97 690.911 1018.46 727.317 920.309 794.791 C 826.218 859.793 783.377 974.172 807.727 1085.28 C 826.509 1170.98 875.195 1224.56 946.001 1270.46 C 964.22 1261.41 986.294 1248.29 1005.11 1238.43 C 956.793 1211.88 919.518 1185.6 890.974 1136.14 C 861.089 1084.75 852.986 1023.55 868.468 966.158 C 900.746 847.37 996.956 816.575 1092.76 762.255 C 1154.85 727.046 1205.57 683.924 1233.99 616.279 C 1240.38 601.054 1243.69 588.313 1247.96 572.511 C 1327.19 598.53 1412.79 604.924 1495.52 605.765 L 1495.48 811.742 C 1495.48 862.855 1496.32 911.301 1492.23 962.405 C 1476.46 1159.43 1381.8 1325.93 1232.79 1453.03 C 1206.54 1374.39 1170.52 1336.57 1102.1 1292.38 C 1090.26 1298.87 1052.66 1317.97 1044 1323.84 C 1052.99 1328.68 1061.79 1333.86 1070.37 1339.37 C 1130.5 1378.43 1167.21 1420.53 1182.28 1491.74 C 1135.15 1526.1 1079.95 1556.66 1027.29 1581.35 C 1022.09 1583.52 1004.78 1573.57 999.304 1570.87 C 952.386 1547.76 908.939 1521.78 866.332 1491.44 C 870.815 1465.65 880.418 1441.02 894.574 1419.01 C 948.711 1334.03 1048.91 1309.53 1125.3 1255.14 C 1159.4 1231.34 1188.06 1200.55 1209.35 1164.83 C 1260.18 1079.42 1259.57 966.195 1208.6 881.192 C 1182.08 836.946 1146.51 804.401 1102.47 778.549 C 1083.1 789.357 1063.51 799.78 1043.73 809.81 C 1096.12 840.209 1134.18 865.323 1162.94 922.684 C 1185.83 967.294 1193.01 1018.32 1183.32 1067.52 C 1139.6 1280.59 889.414 1229.68 815.9 1452.94 C 802.014 1442.65 776.916 1418.18 764.513 1405.81 C 647.788 1291.43 574.594 1139.94 557.537 977.413 C 551.867 925.256 552.987 868.821 552.983 816.189 L 552.933 605.855 C 647.622 604.484 707.691 599.862 800.163 572.59 C 824.247 663.128 867.714 708.049 945.153 756.364 C 963.216 747.569 985.862 734.611 1004.29 724.937 C 993.044 718.51 981.95 711.822 971.017 704.879 C 912.088 666.781 873.038 623.074 858.251 553.421 C 921.9 528.71 967.553 502.777 1024.2 465.132 z"/>
<path transform="translate(0,0)" fill="rgb(0,0,0)" d="M 1228.75 666.504 C 1280.39 684.27 1342.12 695.259 1396.58 699.169 C 1396.11 773.276 1398.53 855.511 1395.72 928.659 C 1389.94 1090.17 1319.49 1242.59 1200.21 1351.65 C 1191.3 1340.37 1183.86 1332.8 1173.66 1322.99 C 1155.39 1305.64 1141.14 1295.53 1120.41 1281.37 C 1157.96 1255.57 1184.58 1233.83 1211.52 1195.82 C 1257.08 1131.32 1275.08 1051.33 1261.53 973.523 C 1250.4 906.226 1216.16 844.914 1164.7 800.139 C 1150.55 787.708 1136.75 778.242 1121.47 767.414 C 1168.25 738.588 1197.16 711.312 1228.75 666.504 z"/>
<path transform="translate(0,0)" fill="rgb(0,0,0)" d="M 819.001 667.135 C 820.956 667.819 836.906 689.891 839.789 693.48 C 864.118 723.768 894.692 746.201 926.821 767.423 C 887.14 794.388 858.865 818.452 831.647 859.098 C 788.227 924.899 772.63 1005.22 788.268 1082.49 C 805.892 1170.66 854.83 1232.64 928.138 1281.49 C 908.515 1294.95 893.074 1306.56 875.651 1322.52 C 865.859 1331.12 856.971 1341.52 848.333 1351.3 C 840.829 1344.45 832.268 1335.71 825.051 1328.47 C 780.617 1283.23 743.48 1231.36 714.969 1174.72 C 656.414 1056.13 651.842 972.532 651.771 843.657 L 651.797 699.183 C 711.068 695.31 762.563 683.915 819.001 667.135 z"/>
<path transform="translate(0,0)" fill="rgb(0,0,0)" d="M 785.84 596.232 C 787.524 596.258 786.677 596.017 788.274 597.258 C 793.552 615.911 801.362 633.113 809.975 650.388 C 751.512 669.078 693.81 677.699 632.936 682.005 C 632.912 755.274 632.205 829.078 633.098 902.312 C 635.392 1090.47 703.067 1236.72 837.291 1366.49 C 829.058 1378.31 822.203 1389.37 816.062 1402.41 C 814.334 1406.08 809.083 1417.99 806.545 1420.07 L 804.266 1418.25 C 793.813 1408.55 783.573 1398.62 773.555 1388.47 C 664.149 1279.97 594.865 1137.51 577.067 984.461 C 570.343 924.134 571.638 862.781 571.684 802.089 L 571.85 624.136 C 653.145 624.009 707.924 616.01 785.84 596.232 z"/>
<path transform="translate(0,0)" fill="rgb(0,0,0)" d="M 1260.67 595.593 C 1326.17 615.788 1408.74 623.646 1476.85 624.085 C 1477.12 714.229 1476.76 804.907 1476.73 894.687 C 1476.69 1063.83 1422.98 1216.15 1313.69 1345.96 C 1291.84 1371.91 1272.28 1391.01 1247.98 1414.66 L 1241.21 1421.23 C 1231.32 1398.86 1224.65 1386.83 1211.88 1366.35 C 1217.46 1360.95 1223 1355.49 1228.49 1350 C 1328.5 1249.59 1393.43 1124.55 1410.15 983.167 C 1416.19 932.058 1415.31 888.11 1415.33 836.957 L 1415.26 682.14 C 1355.29 678.56 1295.96 667.95 1238.46 650.529 C 1249.11 629.257 1253.88 618.149 1260.67 595.593 z"/>
<path transform="translate(0,0)" fill="rgb(0,0,0)" d="M 897.168 1452.99 L 1151.23 1452.99 C 1156.03 1462.63 1159.01 1472.97 1161.82 1483.31 C 1144.51 1495.35 1126.76 1506.74 1108.61 1517.46 C 1081.18 1533.72 1052.96 1548.61 1024.06 1562.08 C 972.072 1537.14 934.55 1514.54 886.377 1483.42 C 889.891 1472.37 892.651 1463.71 897.168 1452.99 z"/>
<path transform="translate(0,0)" fill="rgb(0,0,0)" d="M 1023.22 487.812 C 1025.74 488.043 1045.17 501.17 1048.45 503.286 C 1086.41 527.772 1127.28 547.663 1168.93 565.042 C 1166.07 575.514 1162.15 584.953 1157.64 594.784 C 1117.82 596.138 1069.65 594.95 1029.25 594.955 L 890.686 595.001 C 886.229 584.327 883.001 576.101 879.345 565.103 C 893.607 558.503 908.21 552.837 922.671 545.937 C 957.678 529.263 991.3 509.827 1023.22 487.812 z"/>
<path transform="translate(0,0)" fill="rgb(0,0,0)" d="M 880.96 997.792 L 1167.52 997.627 C 1168.9 1018.52 1168.76 1029.34 1167.43 1050.19 C 1072.53 1049.2 975.972 1050.1 880.943 1050.09 C 878.885 1034.84 879.071 1012.9 880.96 997.792 z"/>
<path transform="translate(0,0)" fill="rgb(0,0,0)" d="M 941.408 923.502 L 1142.84 923.594 C 1153.43 943.975 1158.44 956.694 1163.89 979.167 C 1145.14 978.959 1126.1 979.124 1107.33 979.113 L 884.274 979.202 C 888.128 960.159 896.794 940.878 905.536 923.626 L 941.408 923.502 z"/>
<path transform="translate(0,0)" fill="rgb(0,0,0)" d="M 884.612 1068.99 L 1163.97 1068.87 C 1160.47 1083.95 1156.97 1094.25 1150.63 1108.25 L 1142.76 1124.46 L 905.197 1124.31 C 894.79 1102.57 890.191 1092.71 884.612 1068.99 z"/>
<path transform="translate(0,0)" fill="rgb(0,0,0)" d="M 901.668 613.49 C 931.314 612.62 965.776 613.598 995.917 613.612 L 1147.5 613.493 C 1139.93 624.619 1132.85 633.124 1123.8 643.029 C 1115.9 651.251 1107.53 658.995 1098.72 666.221 C 1053.76 667.369 994.722 667.065 949.545 666.072 C 935.272 654.879 909.017 629.321 901.668 613.49 z"/>
<path transform="translate(0,0)" fill="rgb(0,0,0)" d="M 1024.24 820.175 C 1065.08 842.642 1103.35 866.123 1130.89 904.87 C 1097.57 905.605 1061.77 904.929 1028.25 904.921 L 917.487 904.943 C 942.916 866.884 985.447 842.221 1024.24 820.175 z"/>
<path transform="translate(0,0)" fill="rgb(0,0,0)" d="M 917.441 1142.99 L 1130.79 1142.96 C 1119.75 1159.48 1103.2 1174.64 1087.92 1187.23 C 1069.59 1202.09 1044.67 1216.68 1024.05 1228.22 C 982.707 1204.11 946 1183.63 917.441 1142.99 z"/>
<path transform="translate(0,0)" fill="rgb(0,0,0)" d="M 953.023 1381.94 C 1000.43 1382.52 1048.5 1381.85 1096.05 1382.14 C 1113.36 1394.62 1130.59 1416.12 1141.43 1434.3 C 1125.87 1434.57 1109.38 1434.25 1093.75 1434.21 C 1032.37 1434.18 968.561 1433.29 907.382 1434.68 C 917.426 1415.82 936.111 1394.87 953.023 1381.94 z"/>
<path transform="translate(0,0)" fill="rgb(0,0,0)" d="M 975.618 685.117 C 1007.01 684.223 1041.61 684.951 1073.25 684.965 C 1067.67 688.942 1061.83 692.474 1056.01 696.1 C 1045.38 702.452 1034.58 708.511 1023.63 714.27 C 1009.54 706.68 988.277 694.318 975.618 685.117 z"/>
<path transform="translate(0,0)" fill="rgb(0,0,0)" d="M 1024.87 1333.97 C 1036.84 1342.36 1058.77 1354.34 1072.57 1363.04 C 1057.46 1363.2 1042.36 1363.27 1027.25 1363.25 L 976.937 1363.2 C 991.346 1352.95 1009.46 1342.93 1024.87 1333.97 z"/>
</svg>